<?xml version="1.0" encoding="utf-8"?>
<!DOCTYPE svg PUBLIC "-//W3C//DTD SVG 1.1//EN" "http://www.w3.org/Graphics/SVG/1.1/DTD/svg11.dtd">
<svg version="1.1" id="Layer_1" xmlns="http://www.w3.org/2000/svg" xmlns:xlink="http://www.w3.org/1999/xlink" x="0px" y="0px"
	 viewBox="0 0 1357 1920" enable-background="new 0 0 1357 1920" xml:space="preserve">
<g>
	<path fill="#FFFFFF" stroke="#FFFFFF" stroke-width="0.0938" d="M696.27,88.96c6.04-1.32,12.94-1.04,18.16,2.65
		c5.38,4.06,9.74,10.38,9.38,17.38c0.74,9.96-7.55,19.03-17.21,20.39c-8.47,1.5-17.53-2.67-21.92-10.04
		c-3.99-6.29-4.19-14.77-0.37-21.18C687,93.77,691.36,90.49,696.27,88.96z"/>
	<path fill="#FFFFFF" stroke="#FFFFFF" stroke-width="0.0938" d="M411.52,280.98c-0.04-1.6-0.04-3.19,0.02-4.78
		c5.14,0.4,10.3,0.21,15.46,0.24c170,0,340,0,510,0c14.47-0.2,28.98,0.41,43.43-0.32c2.03,1.1,2.49,3.28,1.92,5.39
		c-4.0099-1.25-8.24-0.7-12.35-0.78c-160.33,0.01-320.67,0-481,0C463.17,280.89,437.33,280.41,411.52,280.98z"/>
	<path fill="#373737" stroke="#373737" stroke-width="0.0938" d="M659.25,73.23c22.05-10.24,47.92-11.83,71.09-4.53
		c14.96,4.68,28.84,12.93,39.8199,24.14c19.6,18.71,29.56,46.11,29.23,72.96c2.06,0.1,4.15,0.05,6.21,0.35
		c2.44,0.42,4.88,0.86,7.37,0.91c31.01-0.13,62.02-0.02,93.03-0.07c7.15-0.21,14.39,0.7,21.45-0.84
		c10.67,13.3,19.93,27.82,27.67,43.01c7.66,15.8,14.87,31.89,20.14,48.67c1.37,4.86,2.83,9.69,4.52,14.45
		c0.09,0.71,0.28,2.14,0.37,2.85c-185.05-0.1-370.1,0.01-555.15-0.06c-4.5,0.07-9.2-0.68-13.46,1.13c-0.06,1.59-0.06,3.18-0.02,4.78
		c1.46,0.42,2.92,0.9,4.45,1.01c188.77,0.06,377.55-0.07,566.3199,0.07c3.2401,15.79,5.65,31.77,6.57,47.89
		c0.25,5.16,0.74,10.42-0.36,15.53c-196.75,0.12-393.49,0.05-590.24,0.03c-0.43-2.49-0.61-5.02-0.44-7.54
		c0.81-11.96,1.31-24,3.62-35.79c2.54-6.15,2.7-12.9,4.55-19.24c1.17-4.04,2.18-8.16,2.04-12.4c4.86-20.42,13.48-39.68,22.34-58.63
		c0.28-0.52,0.83-1.56,1.11-2.08c9.19-15.59,18.32-31.4,29.96-45.34c2.47-0.59,5.05-0.25,7.57-0.33
		c44.22,0.03,88.44,0.02,132.66,0.01c-0.03-1.43-0.09-2.85-0.17-4.27c-0.37-0.36-1.11-1.07-1.48-1.43c2.31-2.76,1.66-6.58,2.46-9.88
		C607.34,116.13,629.35,86.8,659.25,73.23 M696.27,88.96c-4.91,1.53-9.27,4.81-11.96,9.2c-3.82,6.41-3.62,14.89,0.37,21.18
		c4.39,7.37,13.45,11.54,21.92,10.04c9.66-1.36,17.95-10.43,17.21-20.39c0.36-7-4-13.32-9.38-17.38
		C709.21,87.92,702.31,87.64,696.27,88.96z"/>
	<path fill="#373737" stroke="#373737" stroke-width="0.0938" d="M529.85,942.68c23.7-0.75,47.4301,0,71.14-0.38
		c2.97-0.07,6-0.06,8.89,0.77C583.22,942.36,556.51,943.16,529.85,942.68z"/>
	<path fill="#373737" stroke="#373737" stroke-width="0.0938" d="M623.8,942.84c0.49-0.2401,1.45-0.72,1.94-0.96
		c8.39,0.88,16.84,0.38,25.26,0.5c120.14-0.03,240.28,0.05,360.42-0.03c-8.08,1.06-16.29,0.17-24.42,0.46
		C865.94,942.83,744.86,942.77,623.8,942.84z"/>
	<path fill="#252525" stroke="#252525" stroke-width="0.0938" d="M805.6,166.15c13.1-0.8,26.27-0.13,39.4-0.35
		c25.66-0.01,51.32,0.02,76.98-0.02c1.82,0,3.64,0.13,5.47,0.37c-7.06,1.54-14.3,0.63-21.45,0.84c-31.01,0.05-62.02-0.06-93.03,0.07
		C810.48,167.01,808.04,166.57,805.6,166.15z"/>
	<path fill="#52261E" stroke="#52261E" stroke-width="0.0938" d="M401.25,299.6c1.65-9.8,3.49-19.65,6.78-29.06
		c0.14,4.24-0.87,8.36-2.04,12.4c-1.85,6.34-2.01,13.09-4.55,19.24C401.39,301.54,401.3,300.24,401.25,299.6z"/>
	<path fill="#1B1B1B" stroke="#1B1B1B" stroke-width="0.0938" d="M411.54,276.2c4.26-1.81,8.96-1.06,13.46-1.13
		c185.05,0.07,370.1-0.04,555.15,0.06l0.28,0.99c-14.45,0.73-28.96,0.12-43.43,0.32c-170,0-340,0-510,0
		C421.84,276.41,416.68,276.6,411.54,276.2z"/>
	<path fill="#1F1F1F" stroke="#1F1F1F" stroke-width="0.0938" d="M411.52,280.98c25.81-0.57,51.65-0.09,77.48-0.25
		c160.33,0,320.67,0.01,481,0c4.11,0.08,8.34-0.47,12.35,0.78l-0.06,0.55c-188.77-0.14-377.55-0.01-566.3199-0.07
		C414.44,281.88,412.98,281.4,411.52,280.98z"/>
	<path fill="#FDF2C9" stroke="#FDF2C9" stroke-width="0.0938" d="M982.29,282.06c2.1,7.8,3.29,15.81,4.48,23.8l0.24,1
		c6.57,0.77,13.2,0.47,19.8,0.81c17.33,0.4,34.66,0.97,51.9901,1.36c10.86,0.25,21.72,0.67,32.59,0.74
		c14.62,0.72,29.26,0.9,43.89,1.51c1.65,53.84,3.95,107.65,5.97,161.47c0.17,9.53,0.58,19.04,0.87,28.56
		c0.05,8.64,0.39,17.27,0.73,25.9c0.03,1.7,0.13,3.4,0.22,5.11c0.0601,14.96,0.7101,29.92,1.1001,44.87
		c0.38,11.79,0.5399,23.58,1.1499,35.36c0.01,0.56,0.04,1.69,0.0601,2.25c0.0599,9.52,0.5599,19.02,0.72,28.53
		c-0.0699,12.77,0.4,25.54,0.6801,38.3c0.5599,29.54,1.01,59.09,1.78,88.62c0.12,7.37,0.2799,14.73,0.5499,22.1
		c-0.13,3.13-0.1,6.26,0.11,9.4c0.3301,18.51,0.38,37.02,0.8,55.53c0.3199,51.23,1.39,102.47,1.63,153.71
		c0.4199,32.65,0.2999,65.3,0.89,97.9401c0.3999,30.45,0.1699,60.9099,0.5399,91.37c-0.33,26.23,0.2101,52.47,0.14,78.71
		c0.2101,104.33,0.22,208.66,0.3301,312.99c0.0499,7.11-0.24,14.24,0.35,21.34l-0.2001,0.8301
		C1100.8,1614.33,1047.9,1614.24,995,1614.05c-20.54-0.12-41.09-0.4601-61.63-0.15c-21.88-0.38-43.76-0.4601-65.64-0.72
		c-4.48-0.15-8.96-0.3101-13.43-0.12c-8.68-0.1801-17.36-0.3301-26.04-0.38c-50.34-1.27-100.7-2.0601-151.02-4.12
		c-91.49-3.38-182.95-8.77-274.03-18.2001c-23.38-2.1899-46.65-5.2999-69.98-7.96c-17.27-2.38-34.53-4.9301-51.82-7.17
		c-2.06-10.2-2.35-20.6799-3.68-30.99c-6.4-56.26-11.48-112.67-15.89-169.13c-1.98-23.29-3.65-46.61-5.05-69.95
		c-1.73-20.14-2.66-40.3401-4.04-60.51c-1.3-25.64-2.8-51.27-4.16-76.91c-0.17-4.03-0.43-8.05-0.67-12.0699
		c0.04-6.13-0.23-12.27-0.76-18.37c-1.03-24.8201-2.12-49.63-3.05-74.4501c-0.78-22.78-1.57-45.55-2.39-68.3199
		c-0.13-7.64-0.37-15.27-0.75-22.9c-0.42-20.89-0.67-41.81-1.65-62.68c0.04-8.11-0.28-16.2-0.45-24.3
		c-0.2-13.9901-0.52-27.9901-0.89-41.97c0.2-8.97-0.27-17.94-0.43-26.91c-0.09-7.36-0.15-14.71-0.42-22.06
		c0.07-25.48-0.42-50.97-0.66-76.45c-0.63-28.17-0.2-56.35-1.05-84.52c-0.07-38.17-0.28-76.33-0.4-114.5
		c0.08-12.9,0.13-25.79-0.17-38.68c-0.07-59.29,0.08-118.59-0.15-177.88c8.43,0.38,16.86,0.21,25.3,0.2c25,0.03,50,0.07,75,0.06
		c22.15,0.1,44.31-0.35,66.44,0.24c-2.31,11.79-2.81,23.83-3.62,35.79c-0.17,2.52,0.01,5.05,0.44,7.54
		c196.75,0.02,393.49,0.09,590.24-0.03c1.1-5.11,0.61-10.37,0.36-15.53C987.94,313.83,985.53,297.85,982.29,282.06 M308.44,414.46
		c-8.21,7.15-8.01,22.62,1.82,28.28c9.49,5.46,20.91,5.73,30.77,10.23c3.34,1.26,4.87,5.34,3.34,8.53
		c-1.71,4.01-6.41,5.33-10.36,5.8c-5.35,0.44-11.42,0.11-15.59-3.7c-2.47-2.08-3.18-5.36-3.99-8.33c-4.74-0.56-9.54-0.36-14.3-0.16
		c0.38,4.25,1.26,8.55,3.44,12.28c3.21,5.68,9.33,9.14,15.54,10.57c8.59,1.96,17.76,1.93,26.17-0.81c5.97-2,11.31-6.45,13.32-12.55
		c2.41-7.35,0.98-16.83-5.83-21.38c-9.66-6.42-21.96-5.9-32.27-10.71c-4.61-2.27-3.59-9.28,0.75-11.25
		c5.14-2.46,11.51-2.35,16.74-0.18c3.42,1.37,4.81,4.98,6.07,8.15c4.65,0.4,9.34,0.29,14,0.02c-0.2-5.29-2.2-10.56-6.11-14.2
		c-5.77-5.62-14.16-7.3-21.95-7.37C322.4,407.67,314.24,409.19,308.44,414.46 M463.41,408.65c-8.76,2.09-16.47,8.21-20.27,16.4
		c-4.52,9.6-4.95,20.9-2.25,31.07c2.33,9.02,8.79,16.98,17.48,20.53c8.71,3.49,18.74,3.54,27.53,0.29
		c7.73-2.93,13.95-9.37,16.89-17.06c3.38-8.87,3.8-18.79,1.52-27.98c-1.85-7.41-6.1-14.38-12.49-18.71
		C483.63,407.49,472.96,406.64,463.41,408.65 M771.31,408.19c-8.89,1.23-17.15,6.66-21.56,14.52c-4.55,7.91-5.56,17.39-4.72,26.36
		c0.8799,9.27,5.03,18.62,12.78,24.13c11.85,8.27,29,8.26,40.83-0.05c0.54,1.6,1.07,3.2,1.6,4.82c3.1,0.3,6.25,0.39,9.36-0.08
		c-0.21-12.12,0.06-24.25-0.14-36.38c-9.75-0.24-19.5-0.01-29.2401-0.14c-0.33,3.76-0.33,7.55-0.03,11.31
		c4.85,0.1,9.72-0.32,14.57,0.23c0,2.56,0.19,5.15-0.21,7.69c-3.94,4.86-10.58,6.54-16.6,6.18c-5.86,0.15-11.63-3.08-14.5-8.2
		c-3.45-5.89-3.69-12.99-3.16-19.62c0.47-5.96,3.03-12.09,7.92-15.74c5.85-3.95,13.99-3.91,20.08-0.51
		c3.28,1.72,4.58,5.34,5.87,8.57c4.7401,0.3,9.5,0.23,14.26,0.02c-0.48-7.74-5.01-15.1-11.7-19.01
		C789.14,407.78,779.9,406.96,771.31,408.19 M940.86,414.86c-7.78,7.34-7.36,22.37,2.31,27.95c9.68,5.61,21.51,5.54,31.42,10.59
		c4.85,2.22,3.77,9.54-0.57,11.69c-5.75,3.11-13,3.02-19.06,0.88c-4.69-1.71-6.82-6.46-8.02-10.93c-4.65-0.13-9.31-0.2-13.96,0.08
		c0.55,5.21,1.63,10.67,5.16,14.75c5.44,6.81,14.57,8.9,22.87,9.39c8.13,0.3,16.9-0.69,23.71-5.54c9.52-6.57,10.72-22.69,1.55-30.04
		c-8.79-6.26-20.09-6.36-29.97-9.9c-2.69-0.92-5.92-2.61-6.04-5.84c-0.39-4.4,3.81-7.52,7.79-8.06c4.71-0.67,9.98-0.76,14.12,1.94
		c2.67,1.67,3.55,4.87,4.82,7.57c4.66,0.05,9.34,0.28,13.99-0.22c-0.44-4.94-2-9.98-5.6-13.55c-5.98-6.21-15.06-8.03-23.37-7.95
		C954.52,407.87,946.39,409.41,940.86,414.86 M371.07,408.79l0.13,0.78c-0.67,2.42-0.62,4.94-0.6,7.43
		c0.12,20.37-0.1,40.74,0.12,61.1c4.77,0.15,9.55-0.01,14.33,0.07c1.14-9.95-0.13-20.1,0.59-30.11c9.12-0.06,18.25-0.12,27.37,0.03
		c0.29,9.99-0.06,19.99,0.11,29.99c4.93,0.15,9.87,0.15,14.81,0.01c0.02-23.05,0.11-46.1-0.07-69.14c-4.89-0.22-9.8-0.28-14.69,0.05
		c-0.35,8.94,0.3,17.92-0.3,26.85c-9.16-0.17-18.33-0.11-27.49-0.04c-0.04-8.96,0.3-17.93-0.1-26.89
		C380.54,408.72,375.8,408.81,371.07,408.79 M517.22,409.03c-0.18,23.01-0.04,46.03-0.0699,69.04c4.88,0.18,9.78,0.22,14.66-0.07
		c0.2-8.3-0.31-16.62,0.23-24.91c6.93-0.66,14,0.42,20.85-1.18c6.24-1.33,12.57-4.62,15.51-10.55c3.12-6.36,3.21-14.05,0.8-20.66
		c-2.15-5.87-7.89-9.69-13.84-10.9c-7.37-1.41-14.91-0.89-22.36-0.97C527.74,408.91,522.46,408.58,517.22,409.03 M582.1,408.8
		l0.12,0.8c-0.61,2.76-0.58,5.59-0.55,8.4c0.14,20.03-0.13,40.07,0.12,60.1c4.84,0.11,9.68,0.11,14.52-0.03
		c0-8.16,0.64-16.42-0.36-24.52c6.83-1.69,14.05,0.23,20.92-1.53c7.55-1.29,15.08-6,17.34-13.68c2.11-7.76,1.71-17.29-4.2-23.35
		c-5.21-5.25-13.03-5.93-20.02-6.15C600.7,408.77,591.4,408.85,582.1,408.8 M646.94,408.93c-0.14,23.05-0.16,46.11,0,69.16
		c4.91,0.09,9.85,0.25,14.76-0.12c-0.07-22.95,0.02-45.91-0.03-68.87C656.77,408.62,651.84,408.77,646.94,408.93 M676.13,408.95
		c-0.12,22.68-0.17,45.37,0.04,68.05l-0.31,1c4.69,0.26,9.4,0.22,14.11,0.08c-0.0099-13.47,0.28-26.96-0.18-40.42
		c0.27-2.3,0.27-4.62,0.46-6.92c9.31,15.21,18.17,30.71,27.25,46.07c0.36,0.3,1.09,0.9,1.45,1.2c4.76,0.33,9.56,0.11,14.34,0.07
		c0.23-20.36-0.0099-40.72,0.12-61.08c0.01-2.49,0.05-5.01-0.5699-7.43l0.14-0.78c-4.02-0.03-8.04,0.05-12.05,0.03
		c-2.17-0.03-0.95,2.86-1.34,4.17c0.22,14.27-0.4,28.59,0.31,42.83c-0.34-0.11-1.01-0.34-1.35-0.45
		c-9.13-15.53-18.18-31.13-27.65-46.46C685.98,408.72,681.05,408.73,676.13,408.95 M851.23,409.02c-0.2,22.94,0.24,45.9-0.22,68.83
		l0.73-0.11c6.71,0.86,13.5,0.19,20.26,0.4c8.1-0.2,16.24,0.46,24.31-0.38l0.76,0.12c-0.19-4.06-0.16-8.12-0.15-12.18
		c-10.22-0.42-20.46-0.07-30.69-0.14c-0.48-18.85,0.22-37.74-0.32-56.59C861.02,408.7,856.11,408.68,851.23,409.02 M908.05,408.8
		l0.14,0.8c-0.75,2.73-0.6,5.59-0.6,8.4c0.14,20.02-0.13,40.05,0.1299,60.08c4.83,0.1,9.66,0.13,14.4901,0.04
		c0.27-20.04-0.02-40.09,0.12-60.13c0.02-2.81,0.07-5.65-0.56-8.4l0.14-0.8C917.29,408.81,912.67,408.81,908.05,408.8 M998.4,409.15
		c-0.03,4.16-0.08,8.32,0.0099,12.49c6.78,0.3,13.57-0.22,20.35,0.26c0.02,18.73-0.15,37.46,0.07,56.18
		c4.82,0.17,9.65,0.13,14.4899,0c0.2401-18.66,0.0901-37.34,0.0601-56c6.75-0.91,13.61-0.09,20.41-0.38c0.2-4.23,0.1799-8.47,0-12.7
		c-5.92-0.42-11.87-0.09-17.8-0.18C1023.46,409.02,1010.9,408.41,998.4,409.15 M632.85,593.76c-7.44,3.03-14.88,6.06-22.52,8.55
		c-29.54,10.6-58.98,22.36-85.34,39.64c-4.38,4.11-9.61,7.07-14.44,10.59c-10.72,6.22-19.62,14.95-29.14,22.77
		c-4.43,3.58-8.15,7.92-12.45,11.65c-6.39,5.6-11.89,12.1-18.05,17.96c-3.8,3.56-6.79,8.05-11.27,10.84
		c-1.76,1.41-3.71-0.2-5.03-1.4c-3.46-3.21-6.21-7.08-9.45-10.49c-9.71-10.33-19.92-20.32-31.77-28.19
		c-1.96-1.34-4.66-3.12-6.93-1.34c-6.57,5.09-12.78,10.6299-19.01,16.12c-1.4,1.42-3.71,2.75-3.07,5.1
		c2.49,2.89,5.82,4.89,8.56,7.54c9.9,9.13,18.36,19.72,26.08,30.73c-6.67-0.37-13.35-0.04-20.02-0.14
		c-4.88,0.11-9.81-0.44-14.66,0.39c0.05,33.21-0.01,66.42,0.04,99.62c38.85,0.2,77.72,0.11,116.58,0.04
		c0.75-6.55,0.18-13.16,0.34-19.73c-0.18-26.68,0.36-53.38-0.26-80.04c-1.43-0.28-2.85-0.53-4.26-0.78
		c14.12-17.6,28.48-35.03,43.5-51.86c1.98-2.99,4.59-5.44,7.42-7.62c3.1-2.32,4.23-6.32,7.3-8.65c3.35-2.65,6.41-5.62,9.46-8.6
		c12.73-12.46,26.7599-23.53,41.58-33.4c14.41-9.66,29.79-17.72,45.02-25.97c2.71-1.64,6.29-2.27,8.01-5.16
		C636.91,592.22,634.85,592.94,632.85,593.76 M622.88,771.93c-11.49,4.2-22.97,8.43-34.51,12.49c-5.09-0.76-10.25-0.35-15.37-0.42
		c-14.64,0.05-29.28-0.11-43.91,0.07c-0.1801,3.19-0.17,6.4,0.17,9.59c12.03,0.23,24.12-0.65,36.12,0.51
		c-13.87,6.47-27.53,13.51-40.31,21.96c-4.4,4.08-9.67,6.96-14.44,10.53c-11.25,6.7-20.74,15.82-30.75,24.17
		c-10.6,9.72-20.81,19.87-30.88,30.15c-2.99,3.1-5.61,6.7-9.31,9.01c-2.62,1.64-4.98-1.3-6.71-2.93
		c-12.1-14.21-25.26-27.82-40.95-38.08c-1.56-1.13-3.88-2.03-5.47-0.47c-7.32,5.64-14.32,11.72-21.06,18.03
		c-1.64,1.14-1.55,3.72,0.21,4.71c8.05,6.15,15.09,13.46,21.54,21.25c-7.57,1.3-15.27,0.06-22.88,0.76
		c-0.02,33.22-0.01,66.44-0.01,99.66c5.84,0.91,11.77,0.23,17.64,0.42c33.04-0.13,66.08,0.28,99.11-0.2
		c0.46-21.04,0.05-42.1,0.19-63.14c-0.28-9.12,0.61-18.31-0.51-27.38c9.48-12.39,19.74-24.15,29.8-36.06
		c3.55-4.75,8.23-8.54,11.56-13.46c1.61-2.38,4.14-3.86,6.21-5.77c2.54-2.49,3.86-6.01,6.75-8.17c6.43-5.24,11.99-11.43,18.31-16.79
		c11.92-10.69,24.83-20.28,38.4-28.75c139.93,0.02,279.86,0,419.78,0.01c0.15-3.15,0.16-6.3,0.06-9.43
		c-4.22-0.39-8.44-0.19-12.66-0.2c-128,0-256.01,0-384.02,0c-2.11-0.05-4.2-0.25-6.27-0.58c9.36-4.86,18.38-10.36,27.92-14.86
		c1.16-0.47,1.77-1.57,2.47-2.52C633.44,767.23,628.3,770.02,622.88,771.93 M529.1,933.89c-0.16,2.94-0.16,5.89-0.0099,8.84
		l0.7599-0.05c26.66,0.48,53.37-0.32,80.03,0.39c0.35,0.12,1.05,0.35,1.41,0.47c-25.79,9.47-51.71,19.2-75.36,33.37
		c-5.17,3.09-10.62,5.84-14.96,10.09c-8.78,6.22-18.13,11.64-26.34,18.65c-7.55,6.78-15.73,12.86-22.72,20.26
		c-8.45,7.2999-15.77,15.74-23.8,23.49c-6.46,0-12.92-0.12-19.38,0.09c-10.98-12.12-22.61-23.9299-36.41-32.85
		c-1.54-1.1-3.77-2.09-5.52-0.85c-7.41,5.56-14.26,11.85-21.22,17.96c-1.59,1.02-1.66,3.5-0.08,4.59
		c3.95,3.54,8.12,6.8401,11.8,10.6901c-4.3,0.4-8.62,0.3199-12.92,0.36c-0.02,33.41-0.04,66.8199,0.01,100.23
		c38.83,0.0699,77.67,0.01,116.5,0.03c0.27-1.87,0.47-3.76,0.46-5.64c-0.1-14.33-0.03-28.67-0.05-43.01
		c-0.22-10.37,0.48-20.78-0.4-31.13c9.28-11.96,19.12-23.46,28.96-34.97c3.71-4.9301,8.48-8.97,12.04-14.03
		c2.46-3.52,6.7599-5.28,8.92-9.07c2.28-4.27,6.63-6.69,9.88-10.11c24.07-24.2,52.69-43.52,83.1-58.85
		c121.06-0.07,242.14-0.01,363.2-0.03c8.13-0.29,16.34,0.6,24.42-0.46c0.13-2.83,0.11-5.66-0.16-8.46
		c-4.75-0.39-9.51-0.18-14.26-0.2c-113.67,0-227.33,0-340.99,0.01c-5.55,0.23-11.19-0.55-16.68,0.37c-1.4-0.33-2.76-0.3-4.08,0.09
		c-3.07-0.46-6.16-0.56-9.25-0.5C593.7,933.88,561.39,933.4,529.1,933.89 M529.13,1090.1c-0.23,3.1901-0.22,6.41,0.06,9.61
		c160.81-0.0399,321.63,0.0701,482.44-0.0499c0.12-3.16,0.13-6.3201,0.02-9.4601c-3.55-0.33-7.11-0.26-10.65-0.23
		c-106.67,0.01-213.33,0.01-320,0.01C630.38,1090.08,579.74,1089.8,529.13,1090.1 M364.38,1198.37
		c-0.02,33.41-0.06,66.8199,0.02,100.23c38.82,0.01,77.64-0.0399,116.46,0.03c0.7-4.1801,0.42-8.4301,0.44-12.64
		c0.01-19.33-0.01-38.66,0-57.99c-0.27-9.88,0.56-19.8101-0.43-29.63C442.04,1198.36,403.21,1198.34,364.38,1198.37 M529.11,1238.88
		c-0.2,3.25-0.2,6.52,0.14,9.78c160.79-0.0801,321.58-0.02,482.36-0.03c0.17-3.17,0.13-6.34,0.02-9.49
		c-3.47-0.9301-7.1-0.4-10.63-0.48c-132.67,0.02-265.33-0.01-398,0.01C578.37,1238.8101,553.73,1238.37,529.11,1238.88
		 M364.38,1347.38c-0.06,33.46,0.03,66.9399-0.05,100.41c8.21,0.3999,16.45,0.0699,24.67,0.1799
		c30.31-0.0699,60.62,0.0901,90.92-0.0699l1.09,0.0499c0.14-1.6699,0.28-3.3099,0.31-4.95c-0.09-26.66-0.01-53.33-0.04-79.99
		c-0.05-4.49,0.35-9.01-0.55-13.4301c0.05-0.5499,0.16-1.6599,0.21-2.22C442.09,1347.38,403.23,1347.35,364.38,1347.38
		 M529.16,1388.1c-0.25,3.1801-0.2599,6.39,0.06,9.5801c160.8-0.05,321.6,0.0299,482.4-0.03c0.14-3.16,0.14-6.3,0.02-9.4401
		c-9.54-0.62-19.1-0.09-28.65-0.25c-100.33-0.01-200.66,0-300.99,0C631.06,1388.05,580.1,1387.77,529.16,1388.1z"/>
	<path fill="#76200F" stroke="#76200F" stroke-width="0.0938" d="M986.77,305.86c8.12,0.58,16.28-0.08,24.4,0.42
		c-1.41,0.61-2.85,1.15-4.36,1.39c-6.6-0.34-13.23-0.04-19.8-0.81L986.77,305.86z"/>
	<path fill="#418708" stroke="#418708" stroke-width="0.0938" d="M308.44,414.46c5.8-5.27,13.96-6.79,21.56-6.78
		c7.79,0.07,16.18,1.75,21.95,7.37c3.91,3.64,5.91,8.91,6.11,14.2c-4.66,0.27-9.35,0.38-14-0.02c-1.26-3.17-2.65-6.78-6.07-8.15
		c-5.23-2.17-11.6-2.28-16.74,0.18c-4.34,1.97-5.36,8.98-0.75,11.25c10.31,4.81,22.61,4.29,32.27,10.71
		c6.81,4.55,8.24,14.03,5.83,21.38c-2.01,6.1-7.35,10.55-13.32,12.55c-8.41,2.74-17.58,2.77-26.17,0.81
		c-6.21-1.43-12.33-4.89-15.54-10.57c-2.18-3.73-3.06-8.03-3.44-12.28c4.76-0.2,9.56-0.4,14.3,0.16c0.81,2.97,1.52,6.25,3.99,8.33
		c4.17,3.81,10.24,4.14,15.59,3.7c3.95-0.47,8.65-1.79,10.36-5.8c1.53-3.19,0-7.27-3.34-8.53c-9.86-4.5-21.28-4.77-30.77-10.23
		C300.43,437.08,300.23,421.61,308.44,414.46z"/>
	<path fill="#418708" stroke="#418708" stroke-width="0.0938" d="M463.41,408.65c9.55-2.01,20.22-1.16,28.41,4.54
		c6.39,4.33,10.64,11.3,12.49,18.71c2.28,9.19,1.86,19.11-1.52,27.98c-2.94,7.69-9.16,14.13-16.89,17.06
		c-8.79,3.25-18.82,3.2-27.53-0.29c-8.69-3.55-15.15-11.51-17.48-20.53c-2.7-10.17-2.27-21.47,2.25-31.07
		C446.94,416.86,454.65,410.74,463.41,408.65 M469.39,420.53c-7.31,1.2-12.54,7.82-13.92,14.82c-1.89,8.82-1.25,19.18,4.96,26.25
		c5.5,6.46,16.33,7.03,22.66,1.47c5.16-4.41,7.31-11.48,7.39-18.09c0.22-6.89-0.99-14.39-5.89-19.59
		C480.89,421.15,474.83,419.49,469.39,420.53z"/>
	<path fill="#418708" stroke="#418708" stroke-width="0.0938" d="M771.31,408.19c8.59-1.23,17.83-0.41,25.41,4.1
		c6.69,3.91,11.22,11.27,11.7,19.01c-4.76,0.21-9.52,0.28-14.26-0.02c-1.29-3.23-2.59-6.85-5.87-8.57
		c-6.09-3.4-14.23-3.44-20.08,0.51c-4.89,3.65-7.45,9.78-7.92,15.74c-0.53,6.63-0.29,13.73,3.16,19.62c2.87,5.12,8.64,8.35,14.5,8.2
		c6.02,0.36,12.66-1.32,16.6-6.18c0.4-2.54,0.21-5.13,0.21-7.69c-4.85-0.55-9.72-0.13-14.57-0.23c-0.3-3.76-0.3-7.55,0.03-11.31
		c9.7401,0.13,19.4901-0.1,29.2401,0.14c0.2,12.13-0.07,24.26,0.14,36.38c-3.11,0.47-6.2599,0.38-9.36,0.08
		c-0.53-1.62-1.06-3.22-1.6-4.82c-11.83,8.31-28.98,8.32-40.83,0.05c-7.75-5.51-11.9-14.86-12.78-24.13
		c-0.84-8.97,0.17-18.45,4.72-26.36C754.16,414.85,762.42,409.42,771.31,408.19z"/>
	<path fill="#418708" stroke="#418708" stroke-width="0.0938" d="M646.94,408.93c4.9-0.16,9.83-0.31,14.73,0.17
		c0.05,22.96-0.04,45.92,0.03,68.87c-4.91,0.37-9.85,0.21-14.76,0.12C646.78,455.04,646.8,431.98,646.94,408.93z"/>
	<path fill="#418708" stroke="#418708" stroke-width="0.0938" d="M998.4,409.15c12.5-0.74,25.06-0.13,37.59-0.33
		c5.9301,0.09,11.88-0.24,17.8,0.18c0.1799,4.23,0.2,8.47,0,12.7c-6.8,0.29-13.66-0.53-20.41,0.38
		c0.03,18.66,0.1801,37.34-0.0601,56c-4.84,0.13-9.6699,0.17-14.4899,0c-0.22-18.72-0.05-37.45-0.07-56.18
		c-6.78-0.48-13.57,0.04-20.35-0.26C998.32,417.47,998.37,413.31,998.4,409.15z"/>
	<path fill="#418709" stroke="#418709" stroke-width="0.0938" d="M940.86,414.86c5.53-5.45,13.66-6.99,21.15-7.19
		c8.31-0.08,17.39,1.74,23.37,7.95c3.6,3.57,5.16,8.61,5.6,13.55c-4.65,0.5-9.33,0.27-13.99,0.22c-1.27-2.7-2.15-5.9-4.82-7.57
		c-4.14-2.7-9.41-2.61-14.12-1.94c-3.98,0.54-8.18,3.66-7.79,8.06c0.12,3.23,3.35,4.92,6.04,5.84c9.88,3.54,21.18,3.64,29.97,9.9
		c9.17,7.35,7.97,23.47-1.55,30.04c-6.81,4.85-15.58,5.84-23.71,5.54c-8.3-0.49-17.43-2.58-22.87-9.39
		c-3.53-4.08-4.61-9.54-5.16-14.75c4.65-0.28,9.31-0.21,13.96-0.08c1.2,4.47,3.33,9.22,8.02,10.93c6.06,2.14,13.31,2.23,19.06-0.88
		c4.34-2.15,5.42-9.47,0.57-11.69c-9.91-5.05-21.7401-4.98-31.42-10.59C933.5,437.23,933.08,422.2,940.86,414.86z"/>
	<path fill="#418709" stroke="#418709" stroke-width="0.0938" d="M517.22,409.03c5.2401-0.45,10.52-0.12,15.78-0.2
		c7.45,0.08,14.99-0.44,22.36,0.97c5.95,1.21,11.69,5.03,13.84,10.9c2.41,6.61,2.32,14.3-0.8,20.66
		c-2.94,5.93-9.27,9.22-15.51,10.55c-6.85,1.6-13.92,0.52-20.85,1.18c-0.54,8.29-0.03,16.61-0.23,24.91
		c-4.88,0.29-9.78,0.25-14.66,0.07C517.18,455.06,517.04,432.04,517.22,409.03 M531.89,420.91c-0.14,6.66-0.18,13.32,0.06,19.98
		c5.78,0.17,11.7,0.57,17.39-0.68c8.46-1.98,8.83-16.68,0.3-18.73C543.81,420.37,537.8,420.8,531.89,420.91z"/>
	<path fill="#418808" stroke="#418808" stroke-width="0.0938" d="M371.07,408.79c4.73,0.02,9.47-0.07,14.21,0.13
		c0.4,8.96,0.06,17.93,0.1,26.89l0.03,0.87c9.09,0.49,18.23,0.47,27.32,0.07l0.14-0.9c0.6-8.93-0.05-17.91,0.3-26.85
		c4.89-0.33,9.8-0.27,14.69-0.05c0.18,23.04,0.09,46.09,0.07,69.14c-4.94,0.14-9.88,0.14-14.81-0.01c-0.17-10,0.18-20-0.11-29.99
		c-9.12-0.15-18.25-0.09-27.37-0.03c-0.72,10.01,0.55,20.16-0.59,30.11c-1.1-9.78,0.46-19.68-0.73-29.41
		c-0.72,9.33,0.41,18.71-0.39,28.04c-3.93,0.43-7.89,0.45-11.82,0.05c-0.45-20.28-0.1-40.58-0.14-60.87
		c-0.08-2.16-0.4-4.29-0.77-6.41L371.07,408.79z"/>
	<path fill="#418808" stroke="#418808" stroke-width="0.0938" d="M908.05,408.8c4.62,0.01,9.24,0.01,13.86-0.01l-0.14,0.8
		c-1.59,7.38-0.47,14.94-0.75,22.4c-0.21,14.9,0.37,29.82-0.18,44.71c-3.89,0.38-7.8,0.37-11.67-0.03
		c-0.59-6.21-0.21-12.45-0.28-18.68c0.04-13.33-0.09-26.67,0.11-40c0.02-2.83-0.31-5.63-0.81-8.39L908.05,408.8z"/>
	<path fill="#418808" stroke="#418808" stroke-width="0.0938" d="M632.85,593.76c2-0.82,4.06-1.54,6.22-1.83
		c-1.72,2.89-5.3,3.52-8.01,5.16c-15.23,8.25-30.61,16.31-45.02,25.97c-14.82,9.87-28.85,20.94-41.58,33.4
		c-3.05,2.98-6.11,5.95-9.46,8.6c-3.07,2.33-4.2,6.33-7.3,8.65c-2.83,2.18-5.44,4.63-7.42,7.62c-15.02,16.83-29.38,34.26-43.5,51.86
		c-8.91,11.38-17.72,22.87-25.66,34.96c-2.54,3.66-4.36,8.45-8.9,10.06c-4.96,2.05-9.91,4.18-15.08,5.62
		c-4.4-5.14-6-11.94-9.05-17.87c-5.59-11.13-11.88-21.95-19.07-32.13c-7.72-11.01-16.18-21.6-26.08-30.73
		c-2.74-2.65-6.07-4.65-8.56-7.54c-0.64-2.35,1.67-3.68,3.07-5.1c6.23-5.4901,12.44-11.03,19.01-16.12c2.27-1.78,4.97,0,6.93,1.34
		c11.85,7.87,22.06,17.86,31.77,28.19c3.24,3.41,5.99,7.28,9.45,10.49c1.32,1.2,3.27,2.81,5.03,1.4c4.48-2.79,7.47-7.28,11.27-10.84
		c6.16-5.86,11.66-12.36,18.05-17.96c4.3-3.73,8.02-8.07,12.45-11.65c9.52-7.82,18.42-16.55,29.14-22.77
		c4.83-3.52,10.06-6.48,14.44-10.59c26.36-17.28,55.8-29.04,85.34-39.64C617.97,599.82,625.41,596.79,632.85,593.76z"/>
	<path fill="#418808" stroke="#418808" stroke-width="0.0938" d="M622.88,771.93c5.42-1.91,10.56-4.7,16.22-5.89
		c-0.7,0.95-1.31,2.05-2.47,2.52c-9.54,4.5-18.56,10-27.92,14.86c-5.82,3.08-11.25,6.82-16.89,10.2
		c-13.57,8.47-26.48,18.06-38.4,28.75c-6.32,5.36-11.88,11.55-18.31,16.79c-2.89,2.16-4.21,5.6801-6.75,8.17
		c-2.07,1.91-4.6,3.39-6.21,5.77c-3.33,4.92-8.01,8.71-11.56,13.46c-10.06,11.91-20.32,23.67-29.8,36.06
		c-10.11,12.09-19.49,24.78-28.39,37.78c-3.17,4.36-5.23,10.25-10.69,12.27c-4.98,1.92-9.83,4.59-15.22,5.1
		c-4.05-6.43-6.25-13.77-9.78-20.46c-8.33-15.84-18.03-31.03-29.46-44.81c-6.45-7.79-13.49-15.1-21.54-21.25
		c-1.76-0.99-1.85-3.57-0.21-4.71c6.74-6.31,13.74-12.39,21.06-18.03c1.59-1.56,3.91-0.66,5.47,0.47
		c15.69,10.26,28.85,23.87,40.95,38.08c1.73,1.63,4.09,4.57,6.71,2.93c3.7-2.31,6.32-5.91,9.31-9.01
		c10.07-10.28,20.28-20.43,30.88-30.15c10.01-8.35,19.5-17.47,30.75-24.17c4.77-3.5699,10.04-6.45,14.44-10.53
		c12.78-8.45,26.44-15.49,40.31-21.96c7.63-3.33,15.47-6.16,22.99-9.75C599.91,780.36,611.39,776.13,622.88,771.93z"/>
	<path fill="#418808" stroke="#418808" stroke-width="0.0938" d="M635.25,934.16c1.32-0.39,2.68-0.42,4.08-0.09
		c-4.44,2.76-9.09,5.15-13.59,7.81c-0.49,0.24-1.45,0.72-1.94,0.96c-30.41,15.33-59.03,34.65-83.1,58.85
		c-3.25,3.42-7.6,5.84-9.88,10.11c-2.16,3.79-6.46,5.55-8.92,9.07c-3.56,5.0601-8.33,9.1-12.04,14.03
		c-9.84,11.51-19.68,23.01-28.96,34.97c-11.95,14.5699-23.38,29.62-33.43,45.5699c-1.41,2.3-3.63,3.9501-6.14,4.8701
		c-4.74,1.84-9.44,3.83-14.36,5.1399c-4.68-6.38-6.63-14.1899-10.39-21.0599c-10.73-19.97-23.29-39.1801-39.28-55.36
		c-3.68-3.85-7.85-7.15-11.8-10.6901c-1.58-1.09-1.51-3.5699,0.08-4.59c6.96-6.11,13.81-12.4,21.22-17.96
		c1.75-1.24,3.98-0.25,5.52,0.85c13.8,8.92,25.43,20.73,36.41,32.85c2.84,2.98,5.21,7.08,9.35,8.33
		c4.39-1.0699,6.88-5.49,10.03-8.4199c8.03-7.75,15.35-16.1901,23.8-23.49c6.99-7.4,15.17-13.48,22.72-20.26
		c8.21-7.01,17.56-12.4301,26.34-18.65c4.34-4.25,9.79-7,14.96-10.09c23.65-14.17,49.57-23.9,75.36-33.37
		C619.51,941.05,627.42,937.66,635.25,934.16z"/>
	<path fill="#418809" stroke="#418809" stroke-width="0.0938" d="M582.1,408.8c9.3,0.05,18.6-0.03,27.89,0.04
		c6.99,0.22,14.81,0.9,20.02,6.15c5.91,6.06,6.31,15.59,4.2,23.35c-2.26,7.68-9.79,12.39-17.34,13.68
		c-6.87,1.76-14.09-0.16-20.92,1.53c-2.33,7.53-0.12,15.5-1.13,23.21c-3.89,0.38-7.81,0.36-11.7-0.03
		c-0.57-14.9-0.04-29.82-0.2-44.73c-0.23-7.46,0.61-15-0.7-22.4L582.1,408.8 M596.4,421.13c0.0699,6.56,0.0699,13.11,0,19.67
		c5.71,0.37,11.53,0.57,17.19-0.48c8.79-1.75,9.24-17.18,0.28-18.92C608.11,420.53,602.19,420.55,596.4,421.13z"/>
	<path fill="#418809" stroke="#418809" stroke-width="0.0938" d="M676.13,408.95c4.92-0.22,9.85-0.23,14.77-0.04
		c9.47,15.33,18.52,30.93,27.65,46.46c0.34,0.11,1.01,0.34,1.35,0.45l0.81,0.3c0.5-15.76,0.03-31.54,0.22-47.3
		c4.01,0.02,8.03-0.06,12.05-0.03l-0.14,0.78c-0.4,2.12-0.7401,4.25-0.8,6.41c-0.03,20.31,0.29,40.64-0.14,60.94
		c-4.8,0.4-9.61-0.01-14.4-0.11c-9.08-15.36-17.94-30.86-27.25-46.07c-0.19,2.3-0.19,4.62-0.46,6.92
		c-1.81,12.94,0.01,26.06-0.97,39.05c-4.22,0.37-8.44,0.2-12.65,0.29C675.96,454.32,676.01,431.63,676.13,408.95z"/>
	<path fill="#418809" stroke="#418809" stroke-width="0.0938" d="M851.23,409.02c4.88-0.34,9.79-0.32,14.68-0.05
		c0.54,18.85-0.16,37.74,0.32,56.59c10.23,0.07,20.47-0.28,30.69,0.14c-0.01,4.06-0.04,8.12,0.15,12.18l-0.76-0.12
		c-7.36-1.38-14.88-0.43-22.31-0.68c-7.42,0.25-14.92-0.71-22.26,0.66l-0.73,0.11C851.47,454.92,851.03,431.96,851.23,409.02z"/>
	<path fill="#2D6902" stroke="#2D6902" stroke-width="0.0938" d="M719.59,412.99c0.39-1.31-0.83-4.2,1.34-4.17
		c-0.19,15.76,0.28,31.54-0.22,47.3l-0.81-0.3C719.19,441.58,719.81,427.26,719.59,412.99z"/>
	<path fill="#316702" stroke="#316702" stroke-width="0.0938" d="M371.2,409.57c0.37,2.12,0.69,4.25,0.77,6.41
		c0.04,20.29-0.31,40.59,0.14,60.87c3.93,0.4,7.89,0.38,11.82-0.05c0.8-9.33-0.33-18.71,0.39-28.04c1.19,9.73-0.37,19.63,0.73,29.41
		c-4.78-0.08-9.56,0.08-14.33-0.07c-0.22-20.36,0-40.73-0.12-61.1C370.58,414.51,370.53,411.99,371.2,409.57z"/>
	<path fill="#316C06" stroke="#316C06" stroke-width="0.0938" d="M582.22,409.6c1.3101,7.4,0.47,14.94,0.7,22.4
		c0.16,14.91-0.37,29.83,0.2,44.73c3.89,0.39,7.81,0.41,11.7,0.03c1.01-7.71-1.2-15.68,1.13-23.21c1,8.1,0.36,16.36,0.36,24.52
		c-4.84,0.14-9.68,0.14-14.52,0.03c-0.25-20.03,0.02-40.07-0.12-60.1C581.64,415.19,581.61,412.36,582.22,409.6z"/>
	<path fill="#2F6701" stroke="#2F6701" stroke-width="0.0938" d="M732.04,415.98c0.06-2.16,0.4-4.29,0.8-6.41
		c0.62,2.42,0.58,4.94,0.5699,7.43c-0.1299,20.36,0.11,40.72-0.12,61.08c-4.78,0.04-9.58,0.26-14.34-0.07
		c-0.36-0.3-1.09-0.9-1.45-1.2c4.79,0.1,9.6,0.51,14.4,0.11C732.33,456.62,732.01,436.29,732.04,415.98z"/>
	<path fill="#336F06" stroke="#336F06" stroke-width="0.0938" d="M908.19,409.6c0.5,2.76,0.83,5.56,0.81,8.39
		c-0.2,13.33-0.07,26.67-0.11,40c0.07,6.23-0.31,12.47,0.28,18.68c3.87,0.4,7.78,0.41,11.67,0.03c0.55-14.89-0.03-29.81,0.18-44.71
		c0.28-7.46-0.84-15.02,0.75-22.4c0.63,2.75,0.58,5.59,0.56,8.4c-0.14,20.04,0.15,40.09-0.12,60.13
		c-4.83,0.09-9.66,0.06-14.4901-0.04c-0.2599-20.03,0.01-40.06-0.1299-60.08C907.59,415.19,907.44,412.33,908.19,409.6z"/>
	<path fill="#FCF3C9" stroke="#FCF3C9" stroke-width="0.0938" d="M469.39,420.53c5.44-1.04,11.5,0.62,15.2,4.86
		c4.9,5.2,6.11,12.7,5.89,19.59c-0.08,6.61-2.23,13.68-7.39,18.09c-6.33,5.56-17.16,4.99-22.66-1.47
		c-6.21-7.07-6.85-17.43-4.96-26.25C456.85,428.35,462.08,421.73,469.39,420.53z"/>
	<path fill="#FCF3C9" stroke="#FCF3C9" stroke-width="0.0938" d="M531.89,420.91c5.91-0.11,11.92-0.54,17.75,0.57
		c8.53,2.05,8.16,16.75-0.3,18.73c-5.69,1.25-11.61,0.85-17.39,0.68C531.71,434.23,531.75,427.57,531.89,420.91z"/>
	<path fill="#FBF3C9" stroke="#FBF3C9" stroke-width="0.0938" d="M596.4,421.13c5.79-0.58,11.71-0.6,17.47,0.27
		c8.96,1.74,8.51,17.17-0.28,18.92c-5.66,1.05-11.48,0.85-17.19,0.48C596.47,434.24,596.47,427.69,596.4,421.13z"/>
	<path fill="#2F6704" stroke="#2F6704" stroke-width="0.0938" d="M385.38,435.81c9.16-0.07,18.33-0.13,27.49,0.04l-0.14,0.9
		c-9.09,0.4-18.23,0.42-27.32-0.07L385.38,435.81z"/>
	<path fill="#336A06" stroke="#336A06" stroke-width="0.0938" d="M688.82,476.71c0.98-12.99-0.84-26.11,0.97-39.05
		c0.46,13.46,0.17,26.95,0.18,40.42c-4.71,0.14-9.42,0.18-14.11-0.08l0.31-1C680.38,476.91,684.6,477.08,688.82,476.71z"/>
	<path fill="#2C6404" stroke="#2C6404" stroke-width="0.0938" d="M851.74,477.74c7.34-1.37,14.84-0.41,22.26-0.66
		c7.43,0.25,14.95-0.7,22.31,0.68c-8.07,0.84-16.21,0.18-24.31,0.38C865.24,477.93,858.45,478.6,851.74,477.74z"/>
	<path fill="#7D230F" stroke="#7D230F" stroke-width="0.0938" d="M1143.35,511.84c0.9401,6.75,1.11,13.77-0.28,20.48
		c-0.09-1.71-0.1899-3.41-0.22-5.11C1143.2,522.09,1143.08,516.96,1143.35,511.84z"/>
	<path fill="#651805" stroke="#651805" stroke-width="0.0938" d="M234.08,517.74l0.94,0.5c0.12,38.17,0.33,76.33,0.4,114.5
		c-0.25,4.15-0.58,8.3-1.01,12.44c-0.59-9.21,0.44-18.45-0.58-27.64c0.21-2.94,0.35-5.87,0.42-8.8c0.43-7.59-0.53-15.16-0.31-22.74
		c0.48-11.67-0.28-23.34-0.2-35C233.62,539.91,234.37,528.82,234.08,517.74z"/>
	<path fill="#852519" stroke="#852519" stroke-width="0.0938" d="M1144.17,577.19c0.1599-2.22,0.7999-4.36,1.5399-6.45
		c0.3401,3.82,0.5901,7.67,1.3,11.45c1.13,4.64-1.55,9.14-0.84,13.81c0.0699,5.48,2.26,11.52-0.8501,16.55
		C1144.71,600.77,1144.55,588.98,1144.17,577.19z"/>
	<path fill="#EB9528" stroke="#EB9528" stroke-width="0.0938" d="M451.12,768.15c7.94-12.09,16.75-23.58,25.66-34.96
		c1.41,0.25,2.83,0.5,4.26,0.78c0.62,26.66,0.08,53.36,0.26,80.04c-0.16,6.57,0.41,13.18-0.34,19.73
		c-38.86,0.07-77.73,0.16-116.58-0.04c-0.05-33.2,0.01-66.41-0.04-99.62c4.85-0.83,9.78-0.28,14.66-0.39
		c6.67,0.1,13.35-0.23,20.02,0.14c7.19,10.18,13.48,21,19.07,32.13c3.05,5.93,4.65,12.73,9.05,17.87
		c5.17-1.44,10.12-3.57,15.08-5.62C446.76,776.6,448.58,771.81,451.12,768.15z"/>
	<path fill="#EB9528" stroke="#EB9528" stroke-width="0.0938" d="M387.25,892.5c11.43,13.78,21.13,28.97,29.46,44.81
		c3.53,6.69,5.73,14.03,9.78,20.46c5.39-0.51,10.24-3.18,15.22-5.1c5.46-2.02,7.52-7.91,10.69-12.27c8.9-13,18.28-25.69,28.39-37.78
		c1.12,9.07,0.23,18.26,0.51,27.38c-0.14,21.04,0.27,42.1-0.19,63.14c-33.03,0.48-66.07,0.07-99.11,0.2
		c-5.87-0.19-11.8,0.49-17.64-0.42c0-33.22-0.01-66.44,0.01-99.66C371.98,892.56,379.68,893.8,387.25,892.5z"/>
	<path fill="#EB9528" stroke="#EB9528" stroke-width="0.0938" d="M364.38,1049.39c4.3-0.04,8.62,0.04,12.92-0.36
		c15.99,16.1799,28.55,35.39,39.28,55.36c3.76,6.87,5.71,14.6799,10.39,21.0599c4.92-1.3099,9.62-3.2999,14.36-5.1399
		c2.51-0.92,4.73-2.5701,6.14-4.8701c10.05-15.95,21.48-31,33.43-45.5699c0.88,10.35,0.18,20.76,0.4,31.13
		c0.02,14.34-0.05,28.6801,0.05,43.01c0.01,1.88-0.19,3.77-0.46,5.64c-38.83-0.02-77.67,0.0399-116.5-0.03
		C364.34,1116.21,364.36,1082.8,364.38,1049.39z"/>
	<path fill="#EB9528" stroke="#EB9528" stroke-width="0.0938" d="M364.38,1198.37c38.83-0.03,77.66-0.01,116.49,0
		c0.99,9.8199,0.16,19.75,0.43,29.63c-0.01,19.33,0.01,38.66,0,57.99c-0.02,4.21,0.26,8.46-0.44,12.64
		c-38.82-0.0699-77.64-0.02-116.46-0.03C364.32,1265.1899,364.36,1231.78,364.38,1198.37z"/>
	<path fill="#EB9528" stroke="#EB9528" stroke-width="0.0938" d="M364.38,1347.38c38.85-0.03,77.71,0,116.56-0.02
		c-0.05,0.5601-0.16,1.67-0.21,2.22c-1.38,6.7301-0.66,13.6001-0.78,20.42c-0.02,25.96,0.03,51.9301-0.03,77.9
		c-30.3,0.16-60.61,0-90.92,0.0699c-8.22-0.11-16.46,0.22-24.67-0.1799C364.41,1414.3199,364.32,1380.84,364.38,1347.38z"/>
	<path fill="#7A230E" stroke="#7A230E" stroke-width="0.0938" d="M1149.5,762.7c0.86,6.64,0.04,13.35,0.61,20.01
		c0.16,3.24-0.25,6.48-1,9.64c-0.27-7.37-0.4299-14.73-0.5499-22.1C1148.6899,767.71,1149.0601,765.2,1149.5,762.7z"/>
	<path fill="#929190" stroke="#929190" stroke-width="0.0938" d="M591.82,793.62c5.64-3.38,11.07-7.12,16.89-10.2
		c2.07,0.33,4.16,0.53,6.27,0.58c128.01,0,256.02,0,384.02,0c4.22,0.01,8.44-0.19,12.66,0.2c0.1,3.13,0.09,6.28-0.06,9.43
		C871.68,793.62,731.75,793.64,591.82,793.62z"/>
	<path fill="#929190" stroke="#929190" stroke-width="0.0938" d="M529.11,1238.88c24.62-0.51,49.26-0.0699,73.89-0.21
		c132.67-0.02,265.33,0.01,398-0.01c3.53,0.08,7.16-0.4501,10.63,0.48c0.11,3.15,0.15,6.3199-0.02,9.49
		c-160.78,0.01-321.57-0.05-482.36,0.03C528.91,1245.4,528.91,1242.13,529.11,1238.88z"/>
	<path fill="#919191" stroke="#919191" stroke-width="0.0938" d="M529.09,784.07c14.6299-0.18,29.27-0.02,43.91-0.07
		c5.12,0.07,10.28-0.34,15.37,0.42c-7.52,3.59-15.36,6.42-22.99,9.75c-12-1.16-24.09-0.28-36.12-0.51
		C528.92,790.47,528.91,787.26,529.09,784.07z"/>
	<path fill="#631307" stroke="#631307" stroke-width="0.0938" d="M236.45,823.16c-0.39-9.79-1.67-19.8199,0.68-29.45
		c0.27,7.35,0.33,14.7,0.42,22.06C237.32,818.24,236.91,820.71,236.45,823.16z"/>
	<path fill="#681F0D" stroke="#681F0D" stroke-width="0.0938" d="M239.32,908.95c-1.97-7.88-2.02-16.35-0.45-24.3
		C239.04,892.75,239.36,900.84,239.32,908.95z"/>
	<path fill="#929291" stroke="#929291" stroke-width="0.0938" d="M529.1,933.89c32.29-0.49,64.6-0.01,96.9-0.23
		c3.09-0.06,6.18,0.04,9.25,0.5c-7.83,3.5-15.74,6.89-23.96,9.38c-0.36-0.12-1.06-0.35-1.41-0.47c-2.89-0.83-5.92-0.84-8.89-0.77
		c-23.71,0.38-47.44-0.37-71.14,0.38l-0.7599,0.05C528.94,939.78,528.94,936.83,529.1,933.89z"/>
	<path fill="#929291" stroke="#929291" stroke-width="0.0938" d="M639.33,934.07c5.49-0.92,11.13-0.14,16.68-0.37
		c113.66-0.01,227.32-0.01,340.99-0.01c4.75,0.02,9.51-0.19,14.26,0.2c0.27,2.8,0.29,5.63,0.16,8.46
		c-120.14,0.08-240.28,0-360.42,0.03c-8.42-0.12-16.87,0.38-25.26-0.5C630.24,939.22,634.89,936.83,639.33,934.07z"/>
	<path fill="#E79429" stroke="#E79429" stroke-width="0.0938" d="M428.73,1049.49c6.46-0.21,12.92-0.09,19.38-0.09
		c-3.15,2.9299-5.64,7.35-10.03,8.4199C433.94,1056.5699,431.57,1052.47,428.73,1049.49z"/>
	<path fill="#929191" stroke="#929191" stroke-width="0.0938" d="M529.13,1090.1c50.61-0.2999,101.25-0.02,151.87-0.12
		c106.67,0,213.33,0,320-0.01c3.54-0.03,7.1-0.1,10.65,0.23c0.11,3.14,0.1,6.3-0.02,9.4601c-160.81,0.12-321.63,0.01-482.44,0.0499
		C528.91,1096.51,528.9,1093.29,529.13,1090.1z"/>
	<path fill="#6C1A0B" stroke="#6C1A0B" stroke-width="0.0938" d="M1152.54,1108.9301c0.35-1,0.74-1.9801,1.1599-2.9301
		c0.1001,21.66,0.5901,43.3199,0.5801,64.99c-0.41,9.76,0.24,19.61-1.2001,29.3101
		C1152.71,1169.84,1152.9399,1139.38,1152.54,1108.9301z"/>
	<path fill="#641705" stroke="#641705" stroke-width="0.0938" d="M247.34,1170.11c-0.61-4.8199-0.61-9.72,0.58-14.4399
		c0.24,4.0199,0.5,8.0399,0.67,12.0699C248.28,1168.34,247.66,1169.52,247.34,1170.11z"/>
	<path fill="#7A251D" stroke="#7A251D" stroke-width="0.0938" d="M250.61,1268.59c2.99-7.64-0.28-16.12,2.14-23.9399
		c1.38,20.1699,2.31,40.37,4.04,60.51c1.4,23.34,3.07,46.6599,5.05,69.95c-0.47,0.15-1.4,0.4301-1.87,0.5701
		c-1.79-21.28-2.78-42.63-4.98-63.87c-0.72-6.92,0.17-13.9401-1.24-20.8c-1.03-5.1901-0.07-10.5601-1.31-15.7
		c-0.15-1.54-1.6-2.0801-2.76-2.6801c-1.3,1.21-2.63,2.41-3.95,3.61c-2.88-2.15-1.7-5.96,0.02-8.47
		C247.29,1266.58,249.04,1268.24,250.61,1268.59z"/>
	<path fill="#CA892C" stroke="#CA892C" stroke-width="0.0938" d="M479.95,1370c0.12-6.8199-0.6-13.6899,0.78-20.42
		c0.9,4.42,0.5,8.9401,0.55,13.4301c0.03,26.66-0.05,53.33,0.04,79.99c-0.03,1.64-0.17,3.28-0.31,4.95l-1.09-0.0499
		C479.98,1421.9301,479.93,1395.96,479.95,1370z"/>
	<path fill="#929290" stroke="#929290" stroke-width="0.0938" d="M529.16,1388.1c50.94-0.33,101.9-0.0499,152.84-0.14
		c100.33,0,200.66-0.01,300.99,0c9.55,0.16,19.11-0.37,28.65,0.25c0.12,3.14,0.12,6.28-0.02,9.4401
		c-160.8,0.0599-321.6-0.02-482.4,0.03C528.9,1394.49,528.91,1391.28,529.16,1388.1z"/>
	<path fill="#5F1606" stroke="#5F1606" stroke-width="0.0938" d="M813.95,1613.76c0.31-0.16,0.94-0.48,1.25-0.64
		c4.35-0.1,8.71-0.02,13.06-0.4399c8.68,0.0499,17.36,0.2,26.04,0.38c-8.66,1.7999-17.55,1.1499-26.31,0.7799
		C823.3,1613.59,818.62,1614.01,813.95,1613.76z"/>
	<path fill="#9C3225" stroke="#9C3225" stroke-width="0.0938" d="M230.46,495.29c2.22,7.2999,2.56,14.9399,3.62,22.45l0.94,0.5
		c0.08-12.9,0.13-25.79-0.17-38.6799C232.27,484.3101,228.41,489.61,230.46,495.29z"/>
	<path fill="#9C3225" stroke="#9C3225" stroke-width="0.0938" d="M241.72,994.53c-0.13-7.64-0.37-15.27-0.75-22.9
		c-2.1801,5.57-1.25,11.63-1.31,17.46C239.5,991.15,240.22,993.09,241.72,994.53z"/>
	<path fill="#9C3225" stroke="#9C3225" stroke-width="0.0938" d="M1256.9,1675.01c0.03-253.67-0.1-507.35,0.0499-761.02
		c-0.1399-213.6599-0.09-427.3201-0.11-640.99c-0.23-9.39,0.49-18.8401-0.36-28.1899c-0.16-0.8301-0.49-2.5-0.65-3.3301
		c-0.8999-10.51-8.0299-19.89-16.5599-25.75c-4.21-2.49-8.78-5.36-13.79-5.38c-0.8099-0.2001-2.4299-0.6-3.24-0.7999
		c-7.71-0.8401-15.5-0.0601-23.24-0.3101c-81.3-0.0701-162.59,0.03-243.88-0.0801c7.66,15.8,14.87,31.8901,20.14,48.67
		c1.37,4.86,2.8301,9.6901,4.52,14.4501c0.09,0.71,0.28,2.1399,0.37,2.85l0.2799,0.99c2.03,1.1,2.49,3.2799,1.92,5.39l-0.0599,0.55
		c2.1,7.7999,3.29,15.8099,4.48,23.7999c8.12,0.58,16.28-0.08,24.3999,0.42c-1.4099,0.61-2.8499,1.1499-4.3599,1.3899
		c17.33,0.4001,34.6599,0.9701,51.99,1.3601c10.8599,0.25,21.72,0.6699,32.5898,0.74c0,0,0,0,0.0001,0
		c14.62,0.72,29.26,0.8999,43.89,1.51c1.65,53.84,3.95,107.6499,5.97,161.47c0.17,9.53,0.58,19.04,0.87,28.5601
		c0.05,8.6399,0.39,17.27,0.73,25.8999c0.35-5.1199,0.23-10.25,0.5-15.37c0.9401,6.7501,1.11,13.77-0.28,20.4801
		c0.0601,14.96,0.7101,29.9199,1.1001,44.8699c0.1599-2.22,0.7999-4.3599,1.5399-6.45c0.3401,3.8201,0.5901,7.6699,1.3,11.45
		c1.13,4.6401-1.55,9.1401-0.84,13.8101c0.0699,5.48,2.26,11.52-0.8501,16.55c0.01,0.5599,0.04,1.6899,0.0601,2.25
		c0.0599,9.52,0.5599,19.02,0.72,28.53c-0.0699,12.7699,0.4,25.5399,0.6801,38.2999c0.5599,29.5399,1.01,59.09,1.78,88.62
		c0.1299-2.54,0.5-5.05,0.9399-7.55c0.86,6.64,0.04,13.35,0.61,20.01c0.16,3.24-0.25,6.48-1,9.64c-0.13,3.13-0.1,6.26,0.11,9.4
		c0.3301,18.51,0.38,37.02,0.8,55.53c0.3199,51.23,1.39,102.47,1.63,153.71c0.4199,32.65,0.2999,65.3,0.89,97.9401
		c0.35-1,0.74-1.9801,1.1599-2.9301c0.1001,21.66,0.5901,43.3199,0.5801,64.99c-0.41,9.76,0.24,19.61-1.2001,29.3101
		c-0.33,26.23,0.2101,52.47,0.14,78.71c0.2101,104.33,0.22,208.66,0.3301,312.99c0.0499,7.11-0.24,14.24,0.35,21.34l-0.2001,0.8301
		C1100.8,1614.33,1047.9,1614.24,995,1614.05c-20.54-0.12-41.0901-0.4601-61.63-0.15c-21.88-0.38-43.76-0.4601-65.64-0.72
		c-4.48-0.15-8.96-0.3101-13.4299-0.12c-8.66,1.7999-17.55,1.1499-26.3101,0.7799c-4.6899-0.25-9.37,0.17-14.04-0.08
		c0.3101-0.16,0.9401-0.48,1.25-0.64c4.3501-0.1,8.71-0.02,13.0601-0.4399c-50.3401-1.27-100.7-2.0601-151.02-4.12
		c-91.49-3.38-182.95-8.77-274.03-18.2001c-23.38-2.1899-46.65-5.2999-69.98-7.96c-17.27-2.38-34.53-4.9301-51.82-7.17
		c-2.06-10.2-2.35-20.6799-3.68-30.99c-6.4-56.26-11.48-112.67-15.89-169.13c-0.47,0.15-1.4,0.4301-1.87,0.5701
		c-1.79-21.28-2.78-42.63-4.98-63.87c-0.72-6.92,0.17-13.9401-1.24-20.8c-1.03-5.1901-0.07-10.5601-1.31-15.7
		c-0.15-1.54-1.6-2.0801-2.76-2.6801c-1.3,1.21-2.63,2.41-3.95,3.61c-2.8799-2.15-1.7-5.96,0.02-8.47
		c1.54-1.1901,3.29,0.47,4.86,0.8199c2.9901-7.64-0.28-16.12,2.14-23.9399c-1.3-25.64-2.8-51.27-4.16-76.91
		c-0.31,0.6-0.93,1.78-1.25,2.37c-0.61-4.8199-0.61-9.72,0.58-14.4399c0.04-6.13-0.23-12.27-0.7599-18.37
		c-1.03-24.8201-2.1201-49.63-3.05-74.4501c-0.78-22.78-1.57-45.55-2.39-68.3199c-1.5-1.44-2.22-3.38-2.06-5.44
		c0.06-5.83-0.8701-11.89,1.31-17.46c-0.42-20.89-0.67-41.81-1.65-62.68c-1.97-7.88-2.02-16.35-0.45-24.3
		c-0.2-13.9901-0.52-27.9901-0.89-41.97c0.2-8.97-0.27-17.94-0.43-26.91c-0.23,2.47-0.64,4.94-1.1,7.39
		c-0.39-9.79-1.67-19.8199,0.68-29.45c0.07-25.48-0.42-50.97-0.66-76.45c-0.63-28.1699-0.2-56.3501-1.05-84.52
		c-0.25,4.15-0.58,8.3-1.0099,12.4399c-0.59-9.21,0.44-18.45-0.58-27.6399c0.21-2.9402,0.35-5.8701,0.42-8.8
		c0.43-7.59-0.53-15.1599-0.31-22.74c0.48-11.6699-0.28-23.3401-0.2-35c-0.12-11.0901,0.63-22.1799,0.34-33.26
		c-1.06-7.51-1.4-15.15-3.62-22.45c-2.05-5.6801,1.81-10.98,4.39-15.73c-0.07-59.29,0.08-118.5901-0.15-177.8801
		c8.43,0.3801,16.86,0.2101,25.3,0.2001c25,0.0299,50,0.0699,75,0.0599c22.15,0.1001,44.31-0.35,66.44,0.24
		c-0.05-0.6399-0.14-1.9399-0.19-2.58c1.65-9.7999,3.49-19.65,6.78-29.0599c4.86-20.42,13.48-39.6801,22.34-58.6301
		c0.28-0.5199,0.83-1.5599,1.11-2.0798c-0.86-0.1101-2.5599-0.3401-3.4099-0.4501c-90.6801,0-181.35-0.0499-272.0301,0.01
		c-19,0.4401-36.0699,17.2799-36.5099,36.3099c-0.27,1.39-0.42,2.8201-0.41,4.25c0.04,474.01,0.02,948.03,0.01,1422.05
		c0.25,9.0699-0.59,18.22,0.43,27.25c0.25,6.67,2.69,13.1801,6.55,18.61c1.46,1.91,2.7,4.28,5.02,5.29l-0.05,0.73
		c5.97,5.45,13.51,9.83,21.72,10.33c8.33,1.36,16.8,0.66,25.2,0.8301c339,0,678,0,1017,0c9.39-0.2101,18.84,0.5699,28.1801-0.78
		c16.5599-1.61,30.63-15.8,33.0699-32.11C1257.6899,1693.17,1256.5699,1684.05,1256.9,1675.01z M356.4803,231.0525
		c-0.1169-0.4702-0.2736-0.9397-0.4409-1.4077C356.2068,230.1127,356.3635,230.5822,356.4803,231.0525z M346,268.79L346,268.79
		c-0.2626-0.4727-0.5256-0.9445-0.7861-1.4175C345.4744,267.8456,345.7375,268.3174,346,268.79z M336.19,261.9299
		c-0.2963-1.5018-0.4459-3.001-0.4786-4.4955C335.7441,258.929,335.8937,260.428,336.19,261.9299z M333.7334,240.7576
		c-0.3484,0.4617-0.799,0.8638-1.3934,1.1824C332.9344,241.6212,333.385,241.2192,333.7334,240.7576z M223.187,388.2623
		c-0.0498,1.5546-0.168,3.1046-0.4066,4.6475C223.019,391.3669,223.1372,389.8168,223.187,388.2623z M222.5,394.45
		c-0.095,0.3901-0.1434,0.7756-0.1561,1.158C222.3566,395.2256,222.405,394.84,222.5,394.45z M216,514.04L216,514.04
		c0.3826,0.2899,0.7694,0.5756,1.1561,0.8621C216.7694,514.6156,216.3825,514.3301,216,514.04z M222.34,579.8401
		c-0.335-1.67-0.5351-3.3601-0.6851-5.0564C221.8049,576.48,222.005,578.1699,222.34,579.8401z M222.3,716.1799
		c0.2025-0.6975,0.5425-1.3313,0.9433-1.9368C222.8425,714.8488,222.5025,715.4824,222.3,716.1799z M227.4704,592.9294
		c0.1647,1.0134,0.2752,2.0336,0.3469,3.0583C227.7456,594.963,227.6351,593.9429,227.4704,592.9294z M449.1138,1623.8257
		c0.8595,0.4954,1.7009,1.0313,2.575,1.5103C450.8147,1624.8569,449.9731,1624.321,449.1138,1623.8257z M918.2,1641.77
		c-0.995-0.49-2.02-0.7712-3.0635-0.9277C916.1799,1640.9988,917.2051,1641.28,918.2,1641.77
		c0.7721,0.3684,1.5514,0.6267,2.3357,0.7947C919.7512,1642.3967,918.9719,1642.1384,918.2,1641.77z M967.4866,1640.0836
		c1.0681,0.0831,2.136,0.2463,3.2034,0.5164C969.6224,1640.33,968.5547,1640.1667,967.4866,1640.0836z"/>
</g>
</svg>
